# xmcd
#
# Track frame offsets: 
#        150
#        22056
#        46286
#        62269
#        76103
#        88436
#        100117
#        114257
#        129672
#        138870
#
# Disc length: 2075 seconds
#
# Revision: 2
# Processed by: cddbd v1.5.2PL0 Copyright (c) Steve Scherf et al.
# Submitted via: ExactAudioCopyFreeDBPlugin 1.0
#
DISCID=7908190a
DTITLE=Various Artist - The Best Of R&B
DYEAR=2008
DGENRE=R&B
TTITLE0=Marvin Gaye - Sexual Healing
TTITLE1=Kool and The Gang - Cherish
TTITLE2=Harold Melvin and The Bluenotes - The Love I Lost
TTITLE3=Freda Payne - Band Of Gold
TTITLE4=The Platters - Twilight Time
TTITLE5=Sam and Dave - Hold On, I'm Coming
TTITLE6=The Miracles - You've Really Got A Hold On Me
TTITLE7=Al Wilson - Show and Tell
TTITLE8=Gladys Knight and The Pips - Every Beat Of My Heart
TTITLE9=The Spinners - Rubberband Man
EXTD=BFP2 52240\n\nDisc Four of Four
EXTT0=
EXTT1=
EXTT2=
EXTT3=
EXTT4=
EXTT5=
EXTT6=
EXTT7=
EXTT8=
EXTT9=
PLAYORDER=
